<svg width="139" height="91" viewBox="0 0 139 91" fill="none" xmlns="http://www.w3.org/2000/svg">
<path d="M131.025 49.2503C131.247 52.9496 130.636 56.6503 129.237 60.0828C128.626 61.7633 127.798 63.3566 126.771 64.8221C125.398 66.859 123.689 68.6491 121.716 70.1147C110.4 77.5747 97.2306 81.7507 83.677 82.1784C79.3616 82.5477 74.7378 82.7324 69.6205 82.7324C64.5033 82.7324 59.8794 82.5477 55.5641 82.1784C42.0105 81.7507 28.8419 77.5747 17.5251 70.1147C15.5528 68.6491 13.8427 66.859 12.47 64.8221C11.444 63.3566 10.6146 61.7633 10.0042 60.0828C8.60545 56.6503 7.99423 52.9496 8.21603 49.2503C8.75138 35.5796 11.2851 22.0604 15.7377 9.12183C33.3379 13.5749 51.472 15.5634 69.6205 15.0304C87.7691 15.5634 105.904 13.5749 123.503 9.12183C127.956 22.0604 130.49 35.5796 131.025 49.2503Z" fill="#E91E63"/>
<path d="M123.503 9.12183C117.812 10.741 112.012 11.9585 106.149 12.7656C109.857 24.5978 112.003 36.8635 112.53 49.2503C112.751 52.9496 112.14 56.6503 110.742 60.0828C110.131 61.7633 109.302 63.3566 108.276 64.8221C106.903 66.859 105.194 68.6491 103.221 70.1147C91.9044 77.5747 78.7352 81.7507 65.1816 82.1784C63.6405 82.3075 62.0005 82.3876 60.3728 82.4734C63.301 82.6278 66.3347 82.7324 69.6205 82.7324C74.7378 82.7324 79.3616 82.5477 83.6769 82.1784C97.2305 81.7507 110.4 77.5747 121.716 70.1147C123.689 68.6491 125.398 66.859 126.771 64.8221C127.797 63.3566 128.626 61.7633 129.237 60.0828C130.636 56.6503 131.247 52.9496 131.025 49.2503C130.49 35.5796 127.956 22.0604 123.503 9.12183Z" fill="#AD1457"/>
<path d="M131.025 49.2503C131.247 52.9496 130.636 56.6503 129.237 60.0828C128.626 61.7633 127.798 63.3566 126.771 64.8221C125.398 66.859 123.689 68.6491 121.716 70.1147C110.4 77.5747 97.2306 81.7507 83.677 82.1784C79.3616 82.5477 74.7378 82.7324 69.6205 82.7324C64.5033 82.7324 59.8794 82.5477 55.5641 82.1784C42.0105 81.7507 28.8419 77.5747 17.5251 70.1147C15.5528 68.6491 13.8427 66.859 12.47 64.8221C11.444 63.3566 10.6146 61.7633 10.0042 60.0828C8.60545 56.6503 7.99423 52.9496 8.21603 49.2503C8.75138 35.5796 11.2851 22.0604 15.7377 9.12183C33.3379 13.5749 51.472 15.5634 69.6205 15.0304C87.7691 15.5634 105.904 13.5749 123.503 9.12183C127.956 22.0604 130.49 35.5796 131.025 49.2503Z" stroke="black" stroke-width="15"/>
<path d="M75.7854 45.8042H63.4556C60.0506 45.8042 57.29 48.5594 57.29 51.9587C57.29 55.3579 60.0506 58.1131 63.4556 58.1131H75.7854C79.1904 58.1131 81.951 55.3579 81.951 51.9587C81.951 48.5594 79.1904 45.8042 75.7854 45.8042Z" fill="black"/>
</svg>
