<svg width="201" height="164" viewBox="0 0 201 164" fill="none" xmlns="http://www.w3.org/2000/svg">
<path d="M192.57 81.5955C192.57 106.953 192.57 129.356 170.315 142.65C165.185 145.634 159.695 147.95 153.977 149.543C136.377 153.996 118.242 155.985 100.094 155.452C81.9453 155.985 63.8105 153.996 46.211 149.543C40.4926 147.95 35.0025 145.634 29.873 142.65C7.61718 129.356 7.61719 106.953 7.61719 81.5955C7.61719 47.4982 36.5313 18.8175 75.8035 10.324C83.7861 8.61033 91.9284 7.74412 100.094 7.73907C104.441 7.73474 108.784 7.9814 113.102 8.47762C157.984 13.5242 192.57 44.298 192.57 81.5955Z" fill="#FFE0B2"/>
<path d="M113.102 8.47762C108.784 7.9814 104.441 7.73474 100.094 7.73907C97.1657 7.73907 94.317 7.9915 91.4625 8.20715C92.5108 8.29947 93.5713 8.35429 94.6131 8.47762C139.489 13.5242 174.075 44.298 174.075 81.5955C174.075 106.953 174.075 129.356 151.819 142.65C146.69 145.634 141.2 147.95 135.481 149.543C120.908 153.351 105.91 155.295 90.8462 155.329C93.83 155.403 96.894 155.452 100.094 155.452C118.242 155.985 136.377 153.996 153.977 149.543C159.695 147.95 165.185 145.634 170.315 142.65C192.57 129.356 192.57 106.953 192.57 81.5955C192.57 44.298 157.984 13.5242 113.102 8.47762Z" fill="#DFC49C"/>
<path d="M192.57 81.5955C192.57 106.953 192.57 129.356 170.315 142.65C165.185 145.634 159.695 147.95 153.977 149.543C136.377 153.996 118.242 155.985 100.094 155.452C81.9453 155.985 63.8105 153.996 46.211 149.543C40.4926 147.95 35.0025 145.634 29.873 142.65C7.61718 129.356 7.61719 106.953 7.61719 81.5955C7.61719 47.4982 36.5313 18.8175 75.8035 10.324C83.7861 8.61033 91.9284 7.74412 100.094 7.73907C104.441 7.73474 108.784 7.9814 113.102 8.47762C157.984 13.5242 192.57 44.298 192.57 81.5955Z" stroke="black" stroke-width="15"/>
<path d="M60.0204 124.678C68.5326 124.678 75.4337 117.789 75.4337 109.292C75.4337 100.794 68.5326 93.905 60.0204 93.905C51.5082 93.905 44.6079 100.794 44.6079 109.292C44.6079 117.789 51.5082 124.678 60.0204 124.678Z" fill="#3F51B5"/>
<path d="M140.167 124.678C148.68 124.678 155.58 117.789 155.58 109.292C155.58 100.794 148.68 93.905 140.167 93.905C131.655 93.905 124.754 100.794 124.754 109.292C124.754 117.789 131.655 124.678 140.167 124.678Z" fill="#3F51B5"/>
<path d="M38.4431 124.679C38.4431 128.078 41.203 130.833 44.608 130.833H75.4338C78.8388 130.833 81.5986 128.078 81.5986 124.679C81.5733 122.647 80.5265 120.764 78.8121 119.668C80.6139 116.504 81.5733 112.932 81.5986 109.292C81.5986 97.3946 71.9377 87.7507 60.0205 87.7507C48.1033 87.7507 38.4431 97.3946 38.4431 109.292C38.4684 112.932 39.4278 116.504 41.2297 119.668C39.5153 120.764 38.4684 122.647 38.4431 124.679ZM60.0205 100.06C65.1284 100.06 69.2682 104.193 69.2682 109.292C69.2682 114.39 65.1284 118.524 60.0205 118.524C54.9133 118.524 50.7729 114.39 50.7729 109.292C50.7729 104.193 54.9133 100.06 60.0205 100.06Z" fill="black"/>
<path d="M118.589 124.679C118.589 128.078 121.35 130.833 124.755 130.833H155.58C158.985 130.833 161.745 128.078 161.745 124.679C161.72 122.647 160.672 120.764 158.958 119.668C160.76 116.504 161.719 112.932 161.745 109.292C161.745 97.3946 152.084 87.7507 140.167 87.7507C128.25 87.7507 118.589 97.3946 118.589 109.292C118.615 112.932 119.574 116.504 121.376 119.668C119.662 120.764 118.614 122.647 118.589 124.679ZM140.167 100.06C145.274 100.06 149.415 104.193 149.415 109.292C149.415 114.39 145.274 118.524 140.167 118.524C135.06 118.524 130.92 114.39 130.92 109.292C130.92 104.193 135.06 100.06 140.167 100.06Z" fill="black"/>
</svg>
