<svg width="59" height="82" viewBox="0 0 59 82" fill="none" xmlns="http://www.w3.org/2000/svg">
<path d="M48.9734 65.5443C44.0418 73.1758 34.6092 78.1612 16.2367 67.0827C17.6354 63.6502 18.2466 59.9495 18.0248 56.2509C17.4902 42.5803 14.9558 29.0611 10.5032 16.1218C16.2215 14.5285 21.7116 12.2126 26.8411 9.22876C36.4269 17.014 44.1559 26.8324 49.4668 37.9707C54.1875 46.6048 53.9996 57.084 48.9734 65.5443Z" fill="#9D27B0"/>
<path d="M49.467 37.9707C44.1561 26.8324 36.4271 17.014 26.8413 9.22876C22.9624 11.5065 18.8573 13.3753 14.5911 14.8048C21.2826 21.5817 26.8161 29.4073 30.9717 37.9707C35.6924 46.6049 35.5045 57.084 30.479 65.5443C29.021 67.8848 27.0451 69.8595 24.7021 71.3172C37.6177 76.3826 44.8677 71.9022 48.9743 65.5443C53.9998 57.084 54.1877 46.6049 49.467 37.9707Z" fill="#6A1B9A"/>
<path d="M48.9734 65.5443C44.0418 73.1759 34.6092 78.1612 16.2367 67.0827C17.6354 63.6502 18.2466 59.9495 18.0248 56.2509C17.4902 42.5803 14.9558 29.0611 10.5032 16.1218C16.2215 14.5285 21.7116 12.2126 26.8411 9.22876C36.4269 17.014 44.1559 26.8324 49.4668 37.9707C54.1875 46.6048 53.9996 57.084 48.9734 65.5443Z" stroke="black" stroke-width="15"/>
</svg>
