<svg width="64" height="107" viewBox="0 0 64 107" fill="none" xmlns="http://www.w3.org/2000/svg">
<path d="M55.84 80.015C55.3552 89.8615 47.8776 97.949 38.0845 99.2177C37.4899 99.2689 36.8932 99.2891 36.2964 99.279C28.73 99.2011 21.8664 94.8317 18.603 88.0159C13.9792 78.7838 9.3554 63.0893 8.677 37.1783C22.2306 36.7506 35.3998 32.5745 46.7159 25.1153C48.689 23.649 50.3983 21.8588 51.771 19.822C55.3126 39.6789 56.6774 59.8624 55.84 80.015Z" fill="#3F51B5"/>
<path d="M51.7709 19.822C50.3982 21.8588 48.6888 23.649 46.7157 25.1153C43.1063 27.7248 39.1673 29.8482 35.0015 31.4299C37.3878 47.5081 38.1725 63.7824 37.3445 80.015C36.893 86.9909 33.0003 93.2875 26.9561 96.8173C29.8077 98.4207 33.0234 99.2682 36.2962 99.279C36.893 99.2891 37.4897 99.2689 38.0843 99.2177C47.8775 97.949 55.3551 89.8615 55.8399 80.015C56.6772 59.8624 55.3124 39.6789 51.7709 19.822Z" fill="#283593"/>
<path d="M55.84 80.015C55.3552 89.8615 47.8776 97.949 38.0845 99.2177C37.4899 99.2689 36.8932 99.2891 36.2964 99.279C28.73 99.2011 21.8664 94.8317 18.603 88.0159C13.9792 78.7838 9.3554 63.0893 8.677 37.1783C22.2306 36.7506 35.3998 32.5745 46.7159 25.1153C48.689 23.649 50.3983 21.8588 51.771 19.822C55.3126 39.6789 56.6774 59.8624 55.84 80.015Z" stroke="black" stroke-width="15"/>
</svg>
